# AST/ASF file generated using VICON BodyLanguage
# -----------------------------------------------
:version 1.10
:name VICON
:units
  mass 1.0
  length 0.45
  angle deg
:documentation
   .ast/.asf automatically generated from VICON data using
   VICON BodyBuilder and BodyLanguage model FoxedUp or BRILLIANT.MOD
:root
   order TX TY TZ RX RY RZ
   axis XYZ
   position 0 0 0  
   orientation 0 0 0 
:bonedata
  begin
     id 1 
     name lhipjoint
     direction 0.603808 -0.713975 0.35448 
     length 2.2025 
     axis 0 0 0  XYZ
  end
  begin
     id 2 
     name lfemur
     direction 0.34202 -0.939693 0  
     length 6.55877  
     axis 0 0 20  XYZ
    dof rx ry rz
    limits (-160.0 20.0)
           (-70.0 70.0)
           (-60.0 70.0)
  end
  begin
     id 3 
     name ltibia
     direction 0.34202 -0.939693 0   
     length 6.80302   
     axis 0 0 20   XYZ
    dof rx
    limits (-10.0 170.0)
  end
  begin
     id 4 
     name lfoot
     direction 0.091848 -0.25235 0.963267   
     length 2.03446   
     axis -90 7.62852e-016 20   XYZ
    dof rx rz
    limits (-45.0 90.0)
           (-70.0 20.0)
  end
  begin
     id 5 
     name ltoes
     direction 1.53608e-011 -4.21925e-011 1   
     length 1.02033   
     axis -90 7.62852e-016 20   XYZ
    dof rx
    limits (-90.0 20.0)
  end
  begin
     id 6 
     name rhipjoint
     direction -0.587285 -0.724947 0.359928   
     length 2.16916  
     axis 0 0 0  XYZ 
  end
  begin
     id 7 
     name rfemur
     direction -0.34202 -0.939693 0   
     length 6.43173   
     axis 0 0 -20   XYZ
    dof rx ry rz
    limits (-160.0 20.0)
           (-70.0 70.0)
           (-70.0 60.0)
  end
  begin
     id 8 
     name rtibia
     direction -0.34202 -0.939693 0   
     length 6.70662   
     axis 0 0 -20   XYZ
    dof rx
    limits (-10.0 170.0)
 end
 begin
     id 9 
     name rfoot
     direction -0.11854 -0.325686 0.938018   
     length 2.0773  
     axis -90 -7.62852e-016 -20   XYZ
    dof rx rz
    limits (-45.0 90.0)
           (-20.0 70.0)
  end
  begin
     id 10 
     name rtoes
     direction -1.53547e-011 -4.21838e-011 1   
     length 1.03267   
     axis -90 -7.62852e-016 -20   XYZ
    dof rx
    limits (-90.0 20.0)
  end
  begin
     id 11 
     name lowerback
     direction -0.0286554 0.999539 0.0100613   
     length 2.08751   
     axis 0 0 0   XYZ
    dof rx ry rz
    limits (-20.0 45.0)
           (-30.0 30.0)
           (-30.0 30.0)
  end
  begin
     id 12 
     name upperback
     direction 0.0227093 0.999705 -0.00860929   
     length 2.08517   
     axis 0 0 0   XYZ
    dof rx ry rz
    limits (-20.0 45.0)
           (-30.0 30.0)
           (-30.0 30.0)
  end
  begin
     id 13 
     name thorax
     direction 0.0351627 0.999285 -0.013892   
     length 2.08412   
     axis 0 0 0   XYZ
    dof rx ry rz
    limits (-20.0 45.0)
           (-30.0 30.0)
           (-30.0 30.0)
  end
  begin
     id 14 
     name lowerneck
     direction -0.0696283 0.997344 0.0213922   
     length 1.44164   
     axis 0 0 0   XYZ
    dof rx ry rz
    limits (-20.0 45.0)
           (-30.0 30.0)
           (-30.0 30.0)
  end
  begin
     id 15 
     name upperneck
     direction 0.0531 0.990412 -0.127531   
     length 1.45022   
     axis 0 0 0   XYZ
    dof rx ry rz
    limits (-20.0 45.0)
           (-30.0 30.0)
           (-30.0 30.0)
  end
  begin
     id 16
     name head
     direction 0.0188154 0.998548 -0.0504727  
     length 1.45845  
     axis 0 0 0   XYZ
    dof rx ry rz
    limits (-20.0 45.0)
           (-30.0 30.0)
           (-30.0 30.0)
  end
  begin
     id 17 
     name lclavicle
     direction 0.961559 0.260051 0.088188  
     length 2.86057  
     axis 0 0 0   XYZ
    dof ry rz
    limits (-20.0 10.0)
           (0.0 20.0)
  end
  begin
     id 18 
     name lhumerus
     direction 1 -4.48959e-011 2.88185e-027   
     length 4.36901   
     axis 180 -30 -90   XYZ
    dof rx ry rz
    limits (-60.0 90.0)
           (-90.0 90.0)
           (-90.0 90.0)
  end
  begin
     id 19
     name lradius
     direction 1 -4.48965e-011 -3.92618e-028   
     length 3.21737   
     axis 180 -30 -90   XYZ
    dof rx
    limits (-10.0 170.0)
  end
  begin
     id 20
     name lwrist
     direction 1 -4.49037e-011 2.57246e-027   
     length 1.60869   
     axis -1.61769e-015 90 90   XYZ
    dof ry
    limits (-180.0 0.0)
 end
  begin
     id 21 
     name lhand
     direction 1 -4.48807e-011 5.12958e-027   
     length 0.564313   
     axis -3.27988e-015 90 90   XYZ
    dof rx rz
    limits (-90.0 90.0)
           (-45.0 45.0)
  end
  begin
     id 22 
     name lfingers
     direction 1 -4.48879e-011 1.02687e-026   
     length 0.454963   
     axis -6.5598e-015 90 90   XYZ
    dof rx
    limits (0.0 90.0)
  end
  begin
     id 23
     name lthumb
     direction 0.707107 -6.3475e-011 0.707107   
     length 0.653239   
     axis -90 45 2.19363e-014   XYZ
    dof rx rz
    limits (-45.0 45.0)
           (-45.0 45.0)
  end
  begin
     id 24 
     name rclavicle
     direction -0.954677 0.253915 0.155304   
     length 3.11497  
     axis 0 0 0   XYZ 
    dof ry rz
    limits (-10.0 20.0)
           (-20.0 0.0)
  end
  begin
     id 25 
     name rhumerus
     direction -1 -4.48958e-011 -8.20169e-028  
     length 4.34118   
     axis 180 30 90   XYZ
    dof rx ry rz
    limits (-90.0 60.0)
           (-90.0 90.0)
           (-90.0 90.0)
  end
  begin
     id 26 
     name rradius
     direction -1 -4.48978e-011 1.5676e-027   
     length 3.09531   
     axis 180 30 90   XYZ
    dof rx
    limits (-10.0 170.0)
  end
  begin
     id 27 
     name rwrist
     direction -1 -4.49001e-011 2.57123e-027   
     length 1.54765   
     axis -1.61769e-015 -90 -90   XYZ
    dof ry
    limits (-180.0 0.0)
  end
  begin
     id 28
     name rhand
     direction -1 -4.48847e-011 5.13225e-027   
     length 0.597446   
     axis -3.27988e-015 -90 -90   XYZ
    dof rx rz
    limits (-90.0 90.0)
           (-45.0 45.0)
  end
  begin
     id 29
     name rfingers
     direction -1 -4.49094e-011 1.02974e-026   
     length 0.481677   
     axis -6.5598e-015 -90 -90   XYZ
    dof rx
    limits (0.0 90.0)
  end
  begin
     id 30
     name rthumb
     direction -0.707107 -6.34859e-011 0.707107   
     length 0.691594   
     axis -90 -45 -2.19363e-014   XYZ
    dof rx rz
    limits (-45.0 45.0)
           (-45.0 45.0)
  end
:hierarchy
  begin
    root lhipjoint rhipjoint lowerback
    lhipjoint lfemur
    lfemur ltibia
    ltibia lfoot
    lfoot ltoes
    rhipjoint rfemur
    rfemur rtibia
    rtibia rfoot
    rfoot rtoes
    lowerback upperback
    upperback thorax
    thorax lowerneck lclavicle rclavicle
    lowerneck upperneck
    upperneck head
    lclavicle lhumerus
    lhumerus lradius
    lradius lwrist
    lwrist lhand lthumb
    lhand lfingers
    rclavicle rhumerus
    rhumerus rradius
    rradius rwrist
    rwrist rhand rthumb
    rhand rfingers
  end

#!OML:ASF I:\Acrobat_Osman\acrobat\cartwheel_test 2\Patient 1\Session 1\acrobat.ASF
:FULLY-SPECIFIED
:DEGREES
1353
root 6.26016 18.5193 17.3569 -70.5073 -153.839 -130.156
lowerback -7.33213 -0.212753 -2.98589
upperback -7.2717 0.389959 11.0301
thorax -3.71532 0.701339 13.8092
lowerneck -30.4815 -3.56854 -6.39731
upperneck 13.0888 -2.72977 2.32883
head 9.08384 -1.35845 1.39007
rclavicle 3.18055e-015 9.54166e-015
rhumerus -9.28727 -30.21 -80.7609
rradius 116.503
rwrist 3.29116
rhand -54.3155 -636.625
rfingers 7.12502
rthumb -26.7253 55.2423
lclavicle 3.18055e-015 9.54166e-015
lhumerus -160.345 150.325 186.165
lradius 99.1132
lwrist -322.371
lhand -16.8672 50.1289
lfingers 7.12502
lthumb 9.36352 439.901
rfemur -4.34532 17.5054 -17.8891
rtibia 17.8724
rfoot -8.50149 -44.2546
rtoes 45.1047
lfemur -1.75887 -13.1079 4.68547
ltibia 19.5102
lfoot 15.0747 28.259
ltoes 25.3469
1354
root 6.27154 18.5276 17.3494 -70.4894 -153.887 -130.368
lowerback -7.37739 -0.304049 -2.97743
upperback -7.28178 0.266218 11.1278
thorax -3.67137 0.637156 13.9165
lowerneck -30.632 -3.47432 -6.66019
upperneck 13.4006 -2.51141 2.48083
head 9.21437 -1.25307 1.52057
rclavicle 1.17681e-013 -5.40694e-014
rhumerus -9.05444 -29.7981 -80.816
rradius 116.21
rwrist 3.47384
rhand -53.9831 -637.934
rfingers 7.12502
rthumb -26.4071 53.8849
lclavicle 1.17681e-013 -5.40694e-014
lhumerus -161.071 150.724 184.994
lradius 98.599
lwrist -322.778
lhand -17.115 50.2097
lfingers 7.12502
lthumb 9.12438 439.992
rfemur -4.54238 16.9096 -18.0839
rtibia 17.9957
rfoot -7.90438 -43.7135
rtoes 45.27
lfemur -1.54503 -13.2049 4.42133
ltibia 19.4759
lfoot 15.3659 28.2885
ltoes 24.6605
1355
root 6.28351 18.5341 17.3364 -70.5199 -153.962 -130.484
lowerback -7.43334 -0.32609 -2.97135
upperback -7.29741 0.236542 11.1627
thorax -3.65024 0.621873 13.9541
lowerneck -30.9829 -3.52849 -6.58795
upperneck 13.7718 -2.57777 2.42354
head 9.40239 -1.28914 1.47633
rclavicle 6.36111e-015 -1.27222e-014
rhumerus -9.01423 -29.6528 -80.7836
rradius 116.064
rwrist 3.61089
rhand -53.7616 -638.132
rfingers 7.12502
rthumb -26.1951 53.6557
lclavicle 6.36111e-015 -1.27222e-014
lhumerus -161.304 151.136 184.189
lradius 98.2575
lwrist -322.414
lhand -17.5806 50.6176
lfingers 7.12502
lthumb 8.67504 440.419
rfemur -4.70009 16.7734 -18.1591
rtibia 18.2186
rfoot -7.90029 -43.4527
rtoes 45.4352
lfemur -1.36305 -13.2994 4.24467
ltibia 19.3998
lfoot 15.6913 28.1788
ltoes 24.0437
1356
root 6.29496 18.5383 17.3238 -70.5994 -154.06 -130.507
lowerback -7.44815 -0.302077 -2.93018
upperback -7.35696 0.27165 11.1227
thorax -3.71388 0.642396 13.8832
lowerneck -31.0744 -3.52312 -6.46066
upperneck 14.0481 -2.66775 2.65535
head 9.52215 -1.29516 1.5249
rclavicle -1.52667e-013 -6.36111e-014
rhumerus -9.05784 -29.7408 -80.7667
rradius 115.988
rwrist 3.67615
rhand -53.761 -637.611
rfingers 7.12502
rthumb -26.1945 54.1767
lclavicle -1.52667e-013 -6.36111e-014
lhumerus -161.191 151.474 183.609
lradius 97.8461
lwrist -321.457
lhand -17.6705 50.2161
lfingers 7.12502
lthumb 8.58832 440.021
rfemur -4.74577 16.7096 -18.114
rtibia 18.4152
rfoot -7.83212 -43.418
rtoes 45.2678
lfemur -1.23628 -13.2996 4.14741
ltibia 19.3639
lfoot 15.9184 28.0373
ltoes 24.4189
1357
root 6.30562 18.5425 17.3091 -70.7545 -154.245 -130.398
lowerback -7.4167 -0.285284 -2.78479
upperback -7.42392 0.297582 11.1208
thorax -3.80819 0.656002 13.7925
lowerneck -31.2302 -3.71083 -6.2909
upperneck 14.1997 -3.00384 2.73031
head 9.61519 -1.43233 1.46786
rclavicle -3.81667e-014 1.27222e-014
rhumerus -8.97514 -29.8359 -80.7793
rradius 115.831
rwrist 3.86809
rhand -53.9998 -636.83
rfingers 7.12502
rthumb -26.4231 54.9914
lclavicle -3.81667e-014 1.27222e-014
lhumerus -160.969 151.736 183.241
lradius 97.2265
lwrist -320.518
lhand -17.5733 49.2707
lfingers 7.12502
lthumb 8.68211 439.072
rfemur -4.63485 16.6536 -17.8775
rtibia 18.5375
rfoot -7.68266 -43.4598
rtoes 45.2749
lfemur -1.20495 -13.2196 4.20686
ltibia 19.4301
lfoot 15.976 27.9629
ltoes 25.2024
1358
root 6.31684 18.5444 17.2914 -70.9592 -154.466 -130.205
lowerback -7.42289 -0.33113 -2.57803
upperback -7.45512 0.233304 11.1922
thorax -3.82008 0.616205 13.746
lowerneck -31.2676 -3.76951 -6.32522
upperneck 14.2241 -3.07806 2.77988
head 9.63469 -1.46249 1.47828
rclavicle -4.77083e-014 -9.85972e-014
rhumerus -8.81713 -29.6583 -80.8222
rradius 115.59
rwrist 4.19765
rhand -54.4187 -635.312
rfingers 7.12502
rthumb -26.8241 56.5703
lclavicle -4.77083e-014 -9.85972e-014
lhumerus -160.929 151.889 182.954
lradius 96.4553
lwrist -320.131
lhand -17.1056 48.2919
lfingers 7.12502
lthumb 9.13348 438.074
rfemur -4.37687 16.7283 -17.5251
rtibia 18.5743
rfoot -7.70056 -43.5013
rtoes 45.7403
lfemur -1.28212 -13.1705 4.31322
ltibia 19.6206
lfoot 15.8489 27.995
ltoes 25.4364
1359
root 6.33009 18.5445 17.274 -71.1125 -154.586 -130.066
lowerback -7.52969 -0.386277 -2.46875
upperback -7.4418 0.150464 11.25
thorax -3.72393 0.564259 13.742
lowerneck -31.2261 -3.89951 -6.54986
upperneck 14.0043 -3.2238 3.06296
head 9.56488 -1.50618 1.59077
rclavicle 3.18055e-014 2.54444e-014
rhumerus -8.57247 -29.4235 -80.8569
rradius 115.332
rwrist 4.35621
rhand -54.649 -633.903
rfingers 7.12502
rthumb -27.0444 58.013
lclavicle 3.18055e-014 2.54444e-014
lhumerus -161.048 152.026 182.578
lradius 95.8595
lwrist -319.483
lhand -16.4867 47.6549
lfingers 7.12502
lthumb 9.73057 437.41
rfemur -4.09929 16.6819 -17.2952
rtibia 18.5534
rfoot -7.38772 -43.4115
rtoes 45.9691
lfemur -1.44657 -13.0708 4.25696
ltibia 19.8918
lfoot 15.498 28.109
ltoes 25.6484
1360
root 6.34222 18.5459 17.2544 -71.2056 -154.67 -129.963
lowerback -7.66924 -0.35677 -2.4112
upperback -7.45278 0.183154 11.2032
thorax -3.66356 0.574703 13.6509
lowerneck -31.004 -3.92867 -6.52953
upperneck 13.6763 -3.31951 3.22021
head 9.42018 -1.52928 1.62902
rclavicle -1.55847e-013 -2.22639e-014
rhumerus -8.38891 -29.5479 -80.864
rradius 115.091
rwrist 4.37853
rhand -54.698 -633.082
rfingers 7.12502
rthumb -27.0913 58.8416
lclavicle -1.55847e-013 -2.22639e-014
lhumerus -160.877 152.23 182.299
lradius 95.3687
lwrist -318.321
lhand -16.3266 47.1971
lfingers 7.12502
lthumb 9.8851 436.945
rfemur -3.84115 16.5735 -17.1237
rtibia 18.4362
rfoot -7.09981 -43.301
rtoes 45.84
lfemur -1.73049 -12.9543 4.15498
ltibia 20.2574
lfoot 14.8747 28.2863
ltoes 26.245
1361
root 6.34818 18.5495 17.2298 -71.2547 -154.747 -129.924
lowerback -7.72577 -0.317181 -2.40005
upperback -7.49714 0.238149 11.1488
thorax -3.69231 0.604436 13.5827
lowerneck -30.695 -3.89993 -6.37864
upperneck 13.2583 -3.35701 3.19891
head 9.22188 -1.54148 1.59308
rclavicle -9.22361e-014 -5.725e-014
rhumerus -8.39395 -29.6638 -80.8658
rradius 115.042
rwrist 4.41044
rhand -54.8315 -632.624
rfingers 7.12502
rthumb -27.219 59.3199
lclavicle -9.22361e-014 -5.725e-014
lhumerus -160.755 152.366 181.995
lradius 94.7673
lwrist -317.374
lhand -16.4807 46.5686
lfingers 7.12502
lthumb 9.73638 436.324
rfemur -3.77501 16.5405 -16.9899
rtibia 18.4104
rfoot -6.67113 -43.3078
rtoes 45.5634
lfemur -2.03944 -12.8324 4.0398
ltibia 20.5896
lfoot 14.6158 28.1681
ltoes 26.3489
1362
root 6.35084 18.5542 17.1995 -71.4579 -154.76 -129.844
lowerback -7.59335 -0.388483 -2.43736
upperback -7.51496 0.149035 11.1905
thorax -3.76494 0.565235 13.6523
lowerneck -30.2498 -3.80754 -6.50687
upperneck 12.649 -3.21564 3.25844
head 8.93375 -1.47544 1.65967
rclavicle 9.54166e-014 0
rhumerus -8.72482 -29.5243 -80.577
rradius 115.345
rwrist 4.211
rhand -54.913 -632.311
rfingers 7.12502
rthumb -27.2969 59.6453
lclavicle 9.54166e-014 0
lhumerus -161.08 152.491 181.465
lradius 94.2055
lwrist -316.318
lhand -16.655 45.7006
lfingers 7.12502
lthumb 9.56827 435.463
rfemur -3.68439 16.5022 -16.8668
rtibia 18.4752
rfoot -5.49824 -43.4407
rtoes 44.9748
lfemur -2.25807 -12.7913 3.85995
ltibia 20.8501
lfoot 15.0126 27.6483
ltoes 25.3242
1363
root 6.3556 18.5463 17.1844 -71.7577 -154.827 -129.74
lowerback -7.40325 -0.483388 -2.43781
upperback -7.50116 0.0278 11.2992
thorax -3.82848 0.507983 13.7777
lowerneck -29.9032 -3.79178 -7.12911
upperneck 12.161 -3.04836 3.69062
head 8.71855 -1.37641 1.93779
rclavicle -6.36111e-015 2.54444e-014
rhumerus -9.08237 -29.2985 -80.1868
rradius 115.631
rwrist 3.98603
rhand -54.8619 -631.986
rfingers 7.12502
rthumb -27.2481 59.9619
lclavicle -6.36111e-015 2.54444e-014
lhumerus -161.485 152.621 180.96
lradius 93.6752
lwrist -315.514
lhand -16.5022 44.9262
lfingers 7.12502
lthumb 9.71563 434.682
rfemur -3.3512 16.0931 -16.5787
rtibia 18.6492
rfoot -5.70211 -43.0044
rtoes 45.5481
lfemur -2.352 -12.9358 3.67892
ltibia 21.0164
lfoot 15.204 27.4163
ltoes 24.6466
1364
root 6.35776 18.5382 17.1662 -71.9515 -154.994 -129.665
lowerback -7.32807 -0.476436 -2.39482
upperback -7.49145 0.0419194 11.3652
thorax -3.8653 0.517165 13.8316
lowerneck -29.9816 -3.98534 -8.1256
upperneck 12.1607 -3.0517 4.4425
head 8.7605 -1.33764 2.35914
rclavicle 1.27222e-013 1.39944e-013
rhumerus -9.46592 -29.3287 -79.7854
rradius 115.883
rwrist 3.75443
rhand -54.8633 -632.02
rfingers 7.12502
rthumb -27.2494 59.9287
lclavicle 1.27222e-013 1.39944e-013
lhumerus -161.591 152.74 180.68
lradius 93.1672
lwrist -315.611
lhand -16.311 44.5976
lfingers 7.12502
lthumb 9.90011 434.345
rfemur -3.18893 15.8687 -16.2244
rtibia 18.8586
rfoot -6.35645 -42.6884
rtoes 45.9617
lfemur -2.49652 -13.2185 3.59194
ltibia 21.1534
lfoot 14.9004 27.6557
ltoes 25.4468
1365
root 6.3566 18.5341 17.1445 -72.0646 -155.186 -129.581
lowerback -7.3254 -0.362744 -2.31833
upperback -7.50798 0.196668 11.3038
thorax -3.92186 0.595877 13.7176
lowerneck -29.0396 -3.80462 -7.34633
upperneck 11.1319 -3.11436 4.10723
head 8.24445 -1.37047 2.10888
rclavicle -2.22639e-014 -2.00375e-013
rhumerus -9.80774 -29.7789 -79.48
rradius 116.077
rwrist 3.51068
rhand -54.8872 -632.403
rfingers 7.12502
rthumb -27.2723 59.5487
lclavicle -2.22639e-014 -2.00375e-013
lhumerus -161.267 152.941 180.485
lradius 92.7401
lwrist -315.956
lhand -16.552 44.7035
lfingers 7.12502
lthumb 9.66764 434.462
rfemur -3.19232 15.6333 -15.8912
rtibia 19.0893
rfoot -6.50673 -42.5239
rtoes 46.1704
lfemur -2.7411 -13.3986 3.56379
ltibia 21.2782
lfoot 14.4845 27.9319
ltoes 26.4499
